<svg xmlns="http://www.w3.org/2000/svg" width="1600" height="900" viewBox="0 0 1600 900">
  <defs>
    <linearGradient id="skillBg" x1="0" x2="1">
      <stop offset="0%" stop-color="#0b1220"/>
      <stop offset="100%" stop-color="#07203f"/>
    </linearGradient>
  </defs>
  <rect width="1600" height="900" fill="url(#skillBg)"/>
  <!-- radar chart motif -->
  <g transform="translate(460,260)" fill="none" stroke="#60a5fa" stroke-opacity="0.14">
    <polygon points="200,0 380,120 320,320 80,320 20,120" stroke-width="2"/>
    <polygon points="200,20 360,140 300,300 100,300 40,140" stroke-width="1"/>
  </g>
  <!-- gear icon subtle -->
  <g transform="translate(1080,320)" fill="#fff" opacity="0.04">
    <circle cx="0" cy="0" r="80"/>
    <path d="M-6 -44 L6 -44 L16 -64 L36 -56 L46 -36 L26 -26 L34 -6 L14 4 L4 24 L-16 16 L-26 -4 L-6 -14 Z" transform="translate(0,0)"/>
  </g>
  <!-- list-like rectangles to imply skills list -->
  <g transform="translate(220,540)" fill="#fff" opacity="0.03">
    <rect x="0" y="0" width="1160" height="18" rx="6"/>
    <rect x="0" y="36" width="920" height="18" rx="6"/>
    <rect x="0" y="72" width="640" height="18" rx="6"/>
  </g>
</svg>